<svg width="14" height="14" viewBox="0 0 14 14" fill="none" xmlns="http://www.w3.org/2000/svg">
<path d="M0.327051 6.225L3.02705 8.7L2.27705 12.15C2.20205 12.6 2.35205 13.05 2.72705 13.275C2.87705 13.425 3.10205 13.5 3.32705 13.5C3.47705 13.5 3.62705 13.5 3.77705 13.425C3.77705 13.425 3.85205 13.425 3.85205 13.35L6.92705 11.625L10.002 13.35C10.002 13.35 10.077 13.35 10.077 13.425C10.452 13.575 10.902 13.575 11.202 13.35C11.577 13.125 11.727 12.675 11.652 12.225L10.902 8.775C11.202 8.55 11.652 8.1 12.102 7.65L13.527 6.375L13.602 6.3C13.902 6 13.977 5.55 13.827 5.175C13.677 4.8 13.377 4.5 12.927 4.425H12.852L9.32705 4.05L7.90205 0.825C7.90205 0.825 7.90205 0.75 7.82705 0.75C7.75205 0.225 7.37705 0 7.00205 0C6.62705 0 6.25205 0.225 6.02705 0.6C6.02705 0.6 6.02705 0.675 5.95205 0.675L4.52705 3.9L1.00205 4.275H0.927051C0.552051 4.35 0.177051 4.65 0.027051 5.025C-0.047949 5.475 0.0270509 5.925 0.327051 6.225Z" fill="#FFCE31"/>
</svg>
